# xmcd
#
# Track frame offsets:
#	150
#	16071
#	29806
#	41478
#	54404
#	69729
#	87411
#	99340
#	114469
#	128684
#	143356
#	154511
#	165346
#	181485
#	191531
#	204450
#	217732
#	231873
#	245819
#	257287
#	268850
#	284051
#
# Disc length: 3981 seconds
#
# Revision: 0
# Processed by: cddbd v1.5.1PL2 Copyright (c) Steve Scherf et al.
# Submitted via: audiograbber 1.83.01
#
DISCID=300f8b16
DTITLE=Diverse - Portraits of Country Music, compilation five
DYEAR=1900
DGENRE=
TTITLE0=Shane Worley and Wade Sims - Wine, women and song
TTITLE1=Derrick Mehaffey - Pride gets in the way
TTITLE2=Pam Hicks - What a fool
TTITLE3=Troy Cook - Die with my boots on
TTITLE4=Danielle Reddin - Tell me something I don't know
TTITLE5=Darryl Lee O'Donnell - How do I get to you from here
TTITLE6=Barb Marchuk - Fine tune
TTITLE7=Jim Smith - Angel's wings
TTITLE8=Lewis and Hammontree - Queen of walmart
TTITLE9=Ernie Hollar - You promised me you'd never lie
TTITLE10=Sherrill Black - Sweet true love
TTITLE11=Glenn Swafford - Please don't have him near when I'm around
TTITLE12=Pete Henderson - Dreaming of a little cabin
TTITLE13=Diana Brown - The big chance
TTITLE14=Mike Mahn - The man in the moon
TTITLE15=T. Jannotti - I still can't believe you're gone
TTITLE16=Glynn Martin - Last train to Georgia
TTITLE17=Anni Filt - I just might be
TTITLE18=Dalton Roberts - Alabama cross dresser
TTITLE19=Jacob Lyda - You really hit the spot
TTITLE20=Mike Headrick - Steel rails
TTITLE21=Mike Headrick - Steel rails (without train)
EXTD=
EXTT0=
EXTT1=
EXTT2=
EXTT3=
EXTT4=
EXTT5=
EXTT6=
EXTT7=
EXTT8=
EXTT9=
EXTT10=
EXTT11=
EXTT12=
EXTT13=
EXTT14=
EXTT15=
EXTT16=
EXTT17=
EXTT18=
EXTT19=
EXTT20=
EXTT21=
PLAYORDER=
